<?xml version="1.0" encoding="UTF-8"?>
<svg version="1.1" xmlns="http://www.w3.org/2000/svg" width="441" height="382">
<path d="M0 0 C145.53 0 291.06 0 441 0 C441 126.06 441 252.12 441 382 C295.47 382 149.94 382 0 382 C0 255.94 0 129.88 0 0 Z " fill="#FEFEFE" transform="translate(0,0)"/>
<path d="M0 0 C-0.33 119.13 -0.66 238.26 -1 361 C28.37 361 57.74 361 88 361 C88 296.65 88 232.3 88 166 C93.62167553 168.24867021 93.62167553 168.24867021 96.3203125 170.328125 C96.92770264 170.79057617 97.53509277 171.25302734 98.16088867 171.72949219 C99.13312378 172.48214355 99.13312378 172.48214355 100.125 173.25 C101.56051572 174.3446452 102.99674306 175.43835769 104.43359375 176.53125 C105.18237793 177.10230469 105.93116211 177.67335937 106.70263672 178.26171875 C110.4991966 181.13435492 114.34573623 183.93828886 118.1875 186.75 C126.19360126 192.6224095 134.10242078 198.61614279 141.97143555 204.67089844 C143.21727417 205.62657715 143.21727417 205.62657715 144.48828125 206.6015625 C145.21571533 207.16182129 145.94314941 207.72208008 146.69262695 208.29931641 C149.00400423 210.15344039 149.00400423 210.15344039 152.10163879 211.23452759 C154.54323409 212.88631684 154.95492896 213.77558739 155.54443455 216.71078682 C155.74278898 220.46402069 155.74218003 224.19274089 155.68115234 227.94824219 C155.67945964 229.39708892 155.6804104 230.84594081 155.68380737 232.29478455 C155.68552967 236.22669122 155.65024347 240.15750078 155.60836363 244.08915234 C155.57086777 248.19839611 155.56733221 252.30766477 155.56021118 256.41705322 C155.54155884 264.19805075 155.49231697 271.97854276 155.43211424 279.75931764 C155.36506086 288.61769514 155.33206312 297.47609673 155.30194163 306.33466482 C155.23921773 324.55678809 155.12918081 342.77821832 155 361 C169.52 361 184.04 361 199 361 C199 263.98 199 166.96 199 67 C159.4 67 119.8 67 79 67 C79 64.03 79 61.06 79 58 C121.24 58 163.48 58 207 58 C207 160.96 207 263.92 207 370 C93.48 370 -20.04 370 -137 370 C-137 267.04 -137 164.08 -137 58 C-120.83 58 -104.66 58 -88 58 C-88 60.97 -88 63.94 -88 67 C-101.53 67 -115.06 67 -129 67 C-129 164.02 -129 261.04 -129 361 C-109.86 361 -90.72 361 -71 361 C-71.14924927 347.06918213 -71.14924927 347.06918213 -71.30151367 332.85693359 C-71.60672259 303.11187573 -71.8179158 273.36681116 -71.97024126 243.62059309 C-71.99400354 238.99705811 -72.01859578 234.37352788 -72.04370117 229.75 C-72.05117702 228.36935857 -72.05117702 228.36935857 -72.05880389 226.9608254 C-72.14139057 212.07389662 -72.2911438 197.18836756 -72.46590313 182.30226807 C-72.64383792 167.01774015 -72.74916902 151.73394315 -72.7876814 136.44842207 C-72.81370294 127.02200287 -72.895741 117.59953979 -73.05041287 108.17433931 C-73.15116969 101.70330895 -73.18113436 95.23431085 -73.15652617 88.7625538 C-73.14439743 85.0316206 -73.16240691 81.30757283 -73.26490402 77.57787895 C-73.83281885 55.857653 -73.83281885 55.857653 -69.12888741 49.45197153 C-64.69478039 45.10666419 -59.72787289 42.03156404 -54.23410571 39.1978972 C-51.1967618 37.56931457 -48.65692164 35.60476564 -45.97265625 33.44921875 C-44.73563965 32.50332886 -44.73563965 32.50332886 -43.47363281 31.53833008 C-42.67795898 30.92755615 -41.88228516 30.31678223 -41.0625 29.6875 C-39.28802341 28.33038523 -37.51328597 26.97361145 -35.73828125 25.6171875 C-34.91666504 24.9890918 -34.09504883 24.36099609 -33.24853516 23.71386719 C-29.5366704 20.88462825 -25.79751693 18.09282421 -22.0546875 15.3046875 C-19.54483488 13.41106468 -17.05435076 11.49745723 -14.5703125 9.5703125 C-13.79461914 8.97049561 -13.01892578 8.37067871 -12.21972656 7.75268555 C-10.67947108 6.5602866 -9.14225564 5.36394837 -7.60839844 4.16333008 C-6.91004883 3.62345459 -6.21169922 3.0835791 -5.4921875 2.52734375 C-4.86683105 2.03999756 -4.24147461 1.55265137 -3.59716797 1.05053711 C-2 0 -2 0 0 0 Z " fill="#040404" transform="translate(183,12)"/>
<path d="M0 0 C0 112.2 0 224.4 0 340 C-2.31 340 -4.62 340 -7 340 C-7.11436965 297.26370784 -7.20251034 254.5274333 -7.25532665 211.7910185 C-7.26158041 206.7490251 -7.26805199 201.70703201 -7.2746582 196.66503906 C-7.27596976 195.66124174 -7.27728131 194.65744442 -7.2786326 193.623229 C-7.30040692 177.3561039 -7.33983957 161.08906689 -7.38576398 144.8219941 C-7.4324723 128.1384772 -7.46028347 111.45500652 -7.47044247 94.77142692 C-7.47731332 84.47137535 -7.49903726 74.17157271 -7.53958233 63.87159774 C-7.5659513 56.8146892 -7.5740143 49.75790992 -7.56750689 42.70095566 C-7.56429484 38.62545295 -7.56932121 34.55038612 -7.59602737 30.47496033 C-7.62028204 26.7465331 -7.62163925 23.0188366 -7.60449447 19.29037639 C-7.60136697 17.29703733 -7.6230021 15.3037074 -7.64540654 13.3104918 C-7.63047368 11.54291414 -7.63047368 11.54291414 -7.61523914 9.73962784 C-7.61713775 8.72045847 -7.61903635 7.70128911 -7.62099248 6.65123582 C-6.7295164 2.84521018 -4.09664704 0 0 0 Z " fill="#FDFDFD" transform="translate(172,33)"/>
<path d="M0 0 C0 104.28 0 208.56 0 316 C-2.31 316 -4.62 316 -7 316 C-7.11437446 276.32116779 -7.20251278 236.64235702 -7.25532665 196.96339299 C-7.26158039 192.28191016 -7.26805198 187.60042766 -7.2746582 182.91894531 C-7.27596976 181.98692275 -7.27728131 181.05490018 -7.2786326 180.0946345 C-7.30040578 164.99148055 -7.3398378 149.88842149 -7.38576398 134.78532389 C-7.43247548 119.29510051 -7.46028415 103.80492692 -7.47044247 88.31463599 C-7.47731267 78.7516032 -7.499033 69.18883858 -7.53958233 59.62588832 C-7.56595524 53.07357245 -7.57401341 46.52139578 -7.56750689 39.96903065 C-7.56429543 36.18515312 -7.56931418 32.40174508 -7.59602737 28.61795044 C-7.62474639 24.52023857 -7.61497627 20.42353371 -7.60127258 16.32574463 C-7.61583679 15.12342013 -7.630401 13.92109562 -7.64540654 12.68233705 C-7.57243234 4.65732262 -7.57243234 4.65732262 -4.58742046 1.22964096 C-2 0 -2 0 0 0 Z " fill="#FEFEFE" transform="translate(141,57)"/>
<path d="M0 0 C0 107.91 0 215.82 0 327 C-1.98 327 -3.96 327 -6 327 C-6.11437216 285.91983155 -6.20251162 244.83968379 -6.25532665 203.75938801 C-6.2615804 198.91267118 -6.26805199 194.06595465 -6.2746582 189.21923828 C-6.27662553 187.77185929 -6.27662553 187.77185929 -6.2786326 186.29524031 C-6.30040632 170.65859966 -6.33983865 155.02205064 -6.38576398 139.3854644 C-6.43247396 123.34831482 -6.46028383 107.31121332 -6.47044247 91.2739985 C-6.47731298 81.37316559 -6.49903504 71.47259168 -6.53958233 61.57183847 C-6.56595336 54.788251 -6.57401384 48.00479799 -6.56750689 41.22116295 C-6.56429515 37.30362412 -6.56931753 33.38653875 -6.59602737 29.46907997 C-6.62028665 25.88497639 -6.6216364 22.30163292 -6.60449447 18.71749499 C-6.60136781 16.80169778 -6.622999 14.88591003 -6.64540654 12.97024131 C-6.57227624 4.64658413 -6.57227624 4.64658413 -3.52492046 1.2035408 C-1 0 -1 0 0 0 Z " fill="#FDFDFD" transform="translate(155,46)"/>
<path d="M0 0 C0 100.65 0 201.3 0 305 C-1.65 305 -3.3 305 -5 305 C-5.09148744 266.57807361 -5.16200406 228.15616357 -5.20426132 189.73415036 C-5.20926435 185.2015916 -5.21444162 180.66903305 -5.21972656 176.13647461 C-5.2207758 175.23409588 -5.22182505 174.33171715 -5.22290608 173.40199361 C-5.2403275 158.77670417 -5.27187471 144.15147739 -5.30861118 129.52622517 C-5.34597236 114.52756001 -5.36822562 99.52892774 -5.37635398 84.53021795 C-5.38185179 75.26971018 -5.39923713 66.00937953 -5.43166587 56.74892626 C-5.45275427 50.40500674 -5.45921297 44.06117924 -5.45400551 37.71722718 C-5.45143483 34.05302676 -5.455469 30.38913658 -5.4768219 26.72499084 C-5.49976884 22.75849457 -5.49198791 18.79240708 -5.48101807 14.82585144 C-5.49266943 13.65952358 -5.5043208 12.49319572 -5.51632524 11.29152459 C-5.50836104 10.23356598 -5.50039685 9.17560737 -5.49219131 8.08558941 C-5.4937102 7.16932425 -5.49522908 6.2530591 -5.49679399 5.30902833 C-5 3 -5 3 -3.03173804 1.18215066 C-1 0 -1 0 0 0 Z " fill="#E5E5E5" transform="translate(126,68)"/>
<path d="M0 0 C6.34901871 2.53960748 6.34901871 2.53960748 8 5 C8.36914349 8.03971386 8.36914349 8.03971386 8.36076355 11.85258484 C8.36332682 12.55343557 8.3658901 13.2542863 8.36853105 13.97637492 C8.37348193 16.33042949 8.35695518 18.68384608 8.34057617 21.0378418 C8.33973018 22.72299179 8.3402045 24.40814289 8.34190369 26.09329224 C8.34276615 30.67364344 8.32509983 35.25376004 8.30418181 39.83405662 C8.2854568 44.61867322 8.28366787 49.40329491 8.28010559 54.1879425 C8.27077283 63.25084063 8.24614241 72.31363048 8.21605712 81.37648088 C8.18255138 91.69314665 8.16603674 102.00981752 8.15097082 112.32652414 C8.11959393 133.55107658 8.06680953 154.77553147 8 176 C5.36 176 2.72 176 0 176 C0 117.92 0 59.84 0 0 Z " fill="#F5F5F5" transform="translate(279,197)"/>
<path d="M0 0 C7 5 7 5 7.8613348 8.11401844 C7.85488225 9.28930449 7.8484297 10.46459055 7.84178162 11.67549133 C7.84776259 12.33313183 7.85374356 12.99077234 7.85990578 13.66834134 C7.87140926 15.86530855 7.83300052 18.05850677 7.79467773 20.25512695 C7.79270257 21.8321982 7.79381282 23.40927588 7.79777527 24.98634338 C7.79978329 29.26333523 7.75863835 33.53895214 7.70975757 37.81562448 C7.66598988 42.28653248 7.66188581 46.75747223 7.65357971 51.2285614 C7.6318252 59.69311501 7.57438548 68.15703555 7.50413328 76.62131041 C7.42588373 86.25839648 7.38740184 95.89551283 7.35226524 105.53283751 C7.27910251 125.35557831 7.15598283 145.17774927 7 165 C4.69 165 2.38 165 0 165 C0 110.55 0 56.1 0 0 Z " fill="#FDFDFD" transform="translate(297,208)"/>
<path d="M0 0 C6 4 6 4 7 5 C7.09660952 6.92361627 7.12187168 8.85083066 7.12025452 10.77687073 C7.12162918 12.03195435 7.12300385 13.28703796 7.12442017 14.58015442 C7.12088055 15.98385644 7.11724574 17.38755822 7.11352539 18.79125977 C7.11324353 20.25936888 7.11340124 21.72747813 7.1139679 23.19558716 C7.1142559 27.19334657 7.10835874 31.19107624 7.10139394 35.18882871 C7.09516085 39.36220733 7.09455664 43.53558656 7.09336853 47.70896912 C7.09025508 55.61732792 7.08204151 63.52567297 7.07201904 71.4340257 C7.06085832 80.43508494 7.05534756 89.43614482 7.05032361 98.43720925 C7.03985891 116.95814731 7.0222592 135.47907255 7 154 C4.69 154 2.38 154 0 154 C0 103.18 0 52.36 0 0 Z " fill="#FCFCFC" transform="translate(311,219)"/>
<path d="M0 0 C1.65 0.99 3.3 1.98 5 3 C5.61523914 5.55557537 5.61523914 5.55557537 5.60127258 8.67570496 C5.6081459 9.85781052 5.61501923 11.03991608 5.62210083 12.25784302 C5.60412445 13.55616058 5.58614807 14.85447815 5.56762695 16.19213867 C5.56621673 17.57187346 5.56700797 18.951612 5.56983948 20.3313446 C5.57127608 24.07930904 5.54184814 27.82647594 5.50696969 31.57425475 C5.47574611 35.4899987 5.47277864 39.40576027 5.46684265 43.3216095 C5.45129234 50.73778979 5.41024814 58.15360224 5.3600952 65.56962043 C5.3042384 74.01204085 5.27672452 82.4544787 5.25161803 90.89703786 C5.19933306 108.26490481 5.11136807 125.63241353 5 143 C3.35 143 1.7 143 0 143 C0 95.81 0 48.62 0 0 Z " fill="#EBEBEB" transform="translate(325,230)"/>
<path d="M0 0 C0.6084375 0.38929688 1.216875 0.77859375 1.84375 1.1796875 C6.84205119 4.36977973 11.8522978 7.53691162 16.890625 10.66333008 C18.94111778 11.93975205 20.98456416 13.22690306 23.02734375 14.515625 C25.55879403 16.11107169 28.10944861 17.65973526 30.69140625 19.171875 C31.78324219 19.83703125 32.87507813 20.5021875 34 21.1875 C34.969375 21.75855469 35.93875 22.32960937 36.9375 22.91796875 C39 25 39 25 39.3125 28.73828125 C39.209375 29.81464844 39.10625 30.89101562 39 32 C37.78902355 31.42217367 36.58137461 30.83737341 35.375 30.25 C34.70210937 29.92515625 34.02921875 29.6003125 33.3359375 29.265625 C30.44623998 27.69996949 27.7346025 25.82306833 25 24 C24.67 35.22 24.34 46.44 24 58 C19 56 19 56 16 54 C15.84735174 51.35051708 15.86969269 48.91768332 16.015625 46.28125 C16.06296933 44.69708452 16.10502674 43.11275394 16.14233398 41.52832031 C16.17241043 40.29257263 16.17241043 40.29257263 16.20309448 39.03186035 C16.90153573 26.81893463 16.90153573 26.81893463 13.49365234 15.45117188 C10.39267853 12.52902329 7.2134671 11.12126612 3.24609375 9.703125 C1.63927734 8.86007813 1.63927734 8.86007813 0 8 C-0.68264274 5.1028958 -0.36888086 3.01304365 0 0 Z " fill="#030303" transform="translate(197,137)"/>
<path d="M0 0 C3.10905328 3.53436993 4.39077581 7.51323795 5.8125 11.9140625 C6.19498901 13.06858414 6.19498901 13.06858414 6.58520508 14.24642944 C7.39719847 16.70369121 8.19856523 19.16427701 9 21.625 C9.53840234 23.25672839 10.07745849 24.8882412 10.6171875 26.51953125 C13.18810052 34.31357572 15.7219467 42.11423873 18 50 C13.86056029 48.08301058 10.75660246 46.57263593 8.70703125 42.3125 C8.34996094 41.301875 7.99289063 40.29125 7.625 39.25 C5.02492153 32.02160316 -0.06305848 26.46847076 -7 23 C-7.309375 23.78375 -7.61875 24.5675 -7.9375 25.375 C-9 28 -9 28 -10 30 C-12.95409701 28.62845496 -15.44008376 27.01136276 -18 25 C-17.40335492 21.87744343 -16.45943726 19.99176188 -14.453125 17.5390625 C-13.9375 16.90226562 -13.421875 16.26546875 -12.890625 15.609375 C-12.34921875 14.95453125 -11.8078125 14.2996875 -11.25 13.625 C-10.7240625 12.97789062 -10.198125 12.33078125 -9.65625 11.6640625 C-6.4684784 7.75036271 -3.2372964 3.87276569 0 0 Z " fill="#060606" transform="translate(216,219)"/>
<path d="M0 0 C2.71224618 1.61268692 5.37352812 3.24901874 8 5 C8.36076355 6.83499146 8.36076355 6.83499146 8.34057617 9.08251953 C8.34034958 9.92324005 8.34012299 10.76396057 8.33988953 11.63015747 C8.32440567 12.53853363 8.30892181 13.44690979 8.29296875 14.3828125 C8.28872391 15.31221649 8.28447906 16.24162048 8.28010559 17.19918823 C8.26328012 20.17475056 8.22562103 23.14964156 8.1875 26.125 C8.17245816 28.13931315 8.15876888 30.15363689 8.14648438 32.16796875 C8.11336394 37.11223879 8.06155529 42.05600549 8 47 C4.98060568 45.67905511 2.41967204 44.25626447 0 42 C-1.11291713 38.76702132 -0.93790514 35.71184785 -0.78125 32.32421875 C-0.76993042 31.3990596 -0.75861084 30.47390045 -0.74694824 29.52070618 C-0.70226534 26.57417087 -0.60192668 23.63255613 -0.5 20.6875 C-0.45986215 18.6869194 -0.4233619 16.68626227 -0.390625 14.68554688 C-0.30255706 9.78847715 -0.16457214 4.89507178 0 0 Z " fill="#010101" transform="translate(213,278)"/>
<path d="M0 0 C4 2 4 2 7 4 C7.34057617 6.98095703 7.34057617 6.98095703 7.29296875 10.7578125 C7.28872391 11.42086395 7.28447906 12.08391541 7.28010559 12.76705933 C7.26329971 14.88678441 7.22564701 17.00556188 7.1875 19.125 C7.17245549 20.56118419 7.15876668 21.99738328 7.14648438 23.43359375 C7.1133909 26.95603764 7.0615968 30.47792636 7 34 C3.535 32.02 3.535 32.02 0 30 C0 20.1 0 10.2 0 0 Z " fill="#101010" transform="translate(206,21)"/>
<path d="M0 0 C2.91517292 1.07401108 4.77810176 1.77810176 7 4 C7.22705078 6.98095703 7.22705078 6.98095703 7.1953125 10.7578125 C7.1924826 11.42086395 7.18965271 12.08391541 7.18673706 12.76705933 C7.17553435 14.88655583 7.15043051 17.00563104 7.125 19.125 C7.11497028 20.56119182 7.10584441 21.99739025 7.09765625 23.43359375 C7.075595 26.95586628 7.04106494 30.47789203 7 34 C3.72256964 32.51428073 2.16314021 31.77852203 0 29 C-0.91055383 24.06392079 -0.65855027 19.17870793 -0.4375 14.1875 C-0.40236195 12.81322999 -0.37042724 11.43887411 -0.34179688 10.06445312 C-0.25934421 6.70745188 -0.1442899 3.35481936 0 0 Z " fill="#010101" transform="translate(195,14)"/>
<path d="M0 0 C5 2 5 2 7 4 C7.22705078 6.88916016 7.22705078 6.88916016 7.1953125 10.5390625 C7.18564453 12.49199219 7.18564453 12.49199219 7.17578125 14.484375 C7.15906929 15.86458595 7.14213939 17.24479429 7.125 18.625 C7.11497006 20.01301452 7.10584423 21.40103589 7.09765625 22.7890625 C7.07401863 26.19288026 7.04106867 29.59635506 7 33 C3.535 31.02 3.535 31.02 0 29 C0 19.43 0 9.86 0 0 Z " fill="#030303" transform="translate(195,85)"/>
<path d="M0 0 C5 2 5 2 7 3 C7 12.9 7 22.8 7 33 C3.535 31.02 3.535 31.02 0 29 C0 19.43 0 9.86 0 0 Z " fill="#020202" transform="translate(195,50)"/>
<path d="M0 0 C3.465 1.98 3.465 1.98 7 4 C7 13.57 7 23.14 7 33 C3.535 31.02 3.535 31.02 0 29 C0 19.43 0 9.86 0 0 Z " fill="#0F0F0F" transform="translate(206,57)"/>
<path d="M0 0 C3.465 1.98 3.465 1.98 7 4 C7 13.57 7 23.14 7 33 C3.535 31.02 3.535 31.02 0 29 C0 19.43 0 9.86 0 0 Z " fill="#111110" transform="translate(206,92)"/>
<path d="M0 0 C5 2 5 2 6 3 C6.08783542 5.21855264 6.10694609 7.43988496 6.09765625 9.66015625 C6.0962413 10.32462265 6.09482635 10.98908905 6.09336853 11.6736908 C6.08775518 13.80333899 6.07520054 15.93288339 6.0625 18.0625 C6.05748671 19.50325369 6.05292351 20.94400903 6.04882812 22.38476562 C6.03778145 25.92321102 6.02050792 29.46159539 6 33 C4.02 32.01 2.04 31.02 0 30 C0 20.1 0 10.2 0 0 Z " fill="#020202" transform="translate(228,36)"/>
<path d="M0 0 C2.96337891 1.56542969 2.96337891 1.56542969 6 4 C6.68115234 7.20800781 6.68115234 7.20800781 6.5859375 10.953125 C6.57744781 11.61334656 6.56895813 12.27356812 6.56021118 12.95379639 C6.5267285 15.05422053 6.45148521 17.15074547 6.375 19.25 C6.34489256 20.6770277 6.31751808 22.10411586 6.29296875 23.53125 C6.22696218 27.02209173 6.12348826 30.5106651 6 34 C3.03662109 32.43457031 3.03662109 32.43457031 0 30 C-0.68115234 26.79199219 -0.68115234 26.79199219 -0.5859375 23.046875 C-0.57744781 22.38665344 -0.56895813 21.72643188 -0.56021118 21.04620361 C-0.5267285 18.94577947 -0.45148521 16.84925453 -0.375 14.75 C-0.34489256 13.3229723 -0.31751808 11.89588414 -0.29296875 10.46875 C-0.22696218 6.97790827 -0.12348826 3.4893349 0 0 Z " fill="#020202" transform="translate(217,28)"/>
<path d="M0 0 C2.96337891 1.57910156 2.96337891 1.57910156 6 4 C6.68115234 7.11621094 6.68115234 7.11621094 6.5859375 10.734375 C6.56660156 12.02988281 6.54726562 13.32539062 6.52734375 14.66015625 C6.477215 16.02346165 6.42642536 17.38674289 6.375 18.75 C6.34489131 20.12884865 6.31751703 21.5077599 6.29296875 22.88671875 C6.22221326 26.25939731 6.12351802 29.62890827 6 33 C1.125 31.125 1.125 31.125 0 30 C-0.08783542 27.78144736 -0.10694609 25.56011504 -0.09765625 23.33984375 C-0.0962413 22.67537735 -0.09482635 22.01091095 -0.09336853 21.3263092 C-0.08775518 19.19666101 -0.07520054 17.06711661 -0.0625 14.9375 C-0.05748671 13.49674631 -0.05292351 12.05599097 -0.04882812 10.61523438 C-0.03778145 7.07678898 -0.02050792 3.53840461 0 0 Z " fill="#020202" transform="translate(238,42)"/>
<path d="M0 0 C2.96337891 1.57910156 2.96337891 1.57910156 6 4 C6.68115234 7.11621094 6.68115234 7.11621094 6.5859375 10.734375 C6.56660156 12.02988281 6.54726562 13.32539062 6.52734375 14.66015625 C6.477215 16.02346165 6.42642536 17.38674289 6.375 18.75 C6.34489131 20.12884865 6.31751703 21.5077599 6.29296875 22.88671875 C6.22221326 26.25939731 6.12351802 29.62890827 6 33 C3.03662109 31.42089844 3.03662109 31.42089844 0 29 C-0.68115234 25.88378906 -0.68115234 25.88378906 -0.5859375 22.265625 C-0.56660156 20.97011719 -0.54726562 19.67460938 -0.52734375 18.33984375 C-0.477215 16.97653835 -0.42642536 15.61325711 -0.375 14.25 C-0.34489131 12.87115135 -0.31751703 11.4922401 -0.29296875 10.11328125 C-0.22221326 6.74060269 -0.12351802 3.37109173 0 0 Z " fill="#010101" transform="translate(217,64)"/>
<path d="M0 0 C2 1 4 2 6 3 C6 12.57 6 22.14 6 32 C4.02 31.01 2.04 30.02 0 29 C0 19.43 0 9.86 0 0 Z " fill="#020202" transform="translate(238,113)"/>
<path d="M0 0 C2.96337891 1.59277344 2.96337891 1.59277344 6 4 C6.68115234 7.02441406 6.68115234 7.02441406 6.5859375 10.515625 C6.56660156 11.76601562 6.54726562 13.01640625 6.52734375 14.3046875 C6.47707031 15.60664062 6.42679688 16.90859375 6.375 18.25 C6.34792969 19.56742188 6.32085937 20.88484375 6.29296875 22.2421875 C6.22222422 25.49643587 6.12354061 28.74739748 6 32 C1.125 30.125 1.125 30.125 0 29 C-0.08775605 26.85441173 -0.10695219 24.70595579 -0.09765625 22.55859375 C-0.09443359 21.25341797 -0.09121094 19.94824219 -0.08789062 18.60351562 C-0.07953401 17.2148431 -0.07106905 15.82617123 -0.0625 14.4375 C-0.05748666 13.04492344 -0.05292347 11.65234519 -0.04882812 10.25976562 C-0.03699434 6.8398013 -0.0205088 3.41992156 0 0 Z " fill="#030303" transform="translate(238,78)"/>
<path d="M0 0 C4.875 1.875 4.875 1.875 6 3 C6.08775605 5.14558827 6.10695219 7.29404421 6.09765625 9.44140625 C6.09443359 10.74658203 6.09121094 12.05175781 6.08789062 13.39648438 C6.07953401 14.7851569 6.07106905 16.17382877 6.0625 17.5625 C6.05748666 18.95507656 6.05292347 20.34765481 6.04882812 21.74023438 C6.03699434 25.1601987 6.0205088 28.58007844 6 32 C3.03662109 30.40722656 3.03662109 30.40722656 0 28 C-0.68115234 24.97558594 -0.68115234 24.97558594 -0.5859375 21.484375 C-0.56660156 20.23398438 -0.54726562 18.98359375 -0.52734375 17.6953125 C-0.47707031 16.39335938 -0.42679688 15.09140625 -0.375 13.75 C-0.34792969 12.43257812 -0.32085937 11.11515625 -0.29296875 9.7578125 C-0.22222422 6.50356413 -0.12354061 3.25260252 0 0 Z " fill="#030303" transform="translate(228,107)"/>
<path d="M0 0 C6 4 6 4 6.68115234 7.02441406 C6.64973145 8.17651367 6.61831055 9.32861328 6.5859375 10.515625 C6.56660156 11.76601562 6.54726562 13.01640625 6.52734375 14.3046875 C6.47707031 15.60664062 6.42679688 16.90859375 6.375 18.25 C6.34792969 19.56742188 6.32085937 20.88484375 6.29296875 22.2421875 C6.22222422 25.49643587 6.12354061 28.74739748 6 32 C4 31 2 30 0 29 C0 19.43 0 9.86 0 0 Z " fill="#020202" transform="translate(217,99)"/>
<path d="M0 0 C1.98 0.99 3.96 1.98 6 3 C6 12.57 6 22.14 6 32 C4.02 31.01 2.04 30.02 0 29 C0 19.43 0 9.86 0 0 Z " fill="#010101" transform="translate(228,72)"/>
<path d="M0 0 C0.66 0.33 1.32 0.66 2 1 C1.67 10.57 1.34 20.14 1 30 C0.01 28.68 -0.98 27.36 -2 26 C-2.66 26 -3.32 26 -4 26 C-4 18.08 -4 10.16 -4 2 C-3.34 1.67 -2.68 1.34 -2 1 C-1.67 1.66 -1.34 2.32 -1 3 C-0.67 2.01 -0.34 1.02 0 0 Z " fill="#E2E2E1" transform="translate(227,35)"/>
<path d="M0 0 C0.66 0 1.32 0 2 0 C2.66 3.3 3.32 6.6 4 10 C2.02 8.35 0.04 6.7 -2 5 C-1.34 3.35 -0.68 1.7 0 0 Z " fill="#F2F3F3" transform="translate(215,233)"/>
</svg>
